<svg width="54" height="54" viewBox="0 0 54 54" fill="none" xmlns="http://www.w3.org/2000/svg">
<path d="M26.6667 17V36.3333M17 26.6667H36.3333M50.8333 26.6667C50.8333 40.0135 40.0135 50.8333 26.6667 50.8333C13.3198 50.8333 2.5 40.0135 2.5 26.6667C2.5 13.3198 13.3198 2.5 26.6667 2.5C40.0135 2.5 50.8333 13.3198 50.8333 26.6667Z" stroke="#1E1E1E" stroke-width="5" stroke-linecap="round" stroke-linejoin="round"/>
<path d="M26.6667 17V36.3333M17 26.6667H36.3333M50.8333 26.6667C50.8333 40.0135 40.0135 50.8333 26.6667 50.8333C13.3198 50.8333 2.5 40.0135 2.5 26.6667C2.5 13.3198 13.3198 2.5 26.6667 2.5C40.0135 2.5 50.8333 13.3198 50.8333 26.6667Z" stroke="white" stroke-width="5" stroke-linecap="round" stroke-linejoin="round"/>
</svg>
