<svg width="155" height="155" viewBox="0 0 155 155" fill="none" xmlns="http://www.w3.org/2000/svg">
<path d="M21.1111 150H133.889C142.787 150 150 142.787 150 133.889V21.1111C150 12.2132 142.787 5 133.889 5H21.1111C12.2132 5 5 12.2132 5 21.1111V133.889C5 142.787 12.2132 150 21.1111 150ZM21.1111 150L102.651 68.46C106.556 64.5547 112.888 64.5547 116.793 68.4599L150 101.667M61.3889 49.3056C61.3889 55.979 55.979 61.3889 49.3056 61.3889C42.6321 61.3889 37.2222 55.979 37.2222 49.3056C37.2222 42.6321 42.6321 37.2222 49.3056 37.2222C55.979 37.2222 61.3889 42.6321 61.3889 49.3056Z" stroke="#1E1E1E" stroke-width="10" stroke-linecap="round" stroke-linejoin="round"/>
<path d="M21.1111 150H133.889C142.787 150 150 142.787 150 133.889V21.1111C150 12.2132 142.787 5 133.889 5H21.1111C12.2132 5 5 12.2132 5 21.1111V133.889C5 142.787 12.2132 150 21.1111 150ZM21.1111 150L102.651 68.46C106.556 64.5547 112.888 64.5547 116.793 68.4599L150 101.667M61.3889 49.3056C61.3889 55.979 55.979 61.3889 49.3056 61.3889C42.6321 61.3889 37.2222 55.979 37.2222 49.3056C37.2222 42.6321 42.6321 37.2222 49.3056 37.2222C55.979 37.2222 61.3889 42.6321 61.3889 49.3056Z" stroke="#ECC30B" stroke-width="10" stroke-linecap="round" stroke-linejoin="round"/>
</svg>
