<svg width="27" height="27" viewBox="0 0 27 27" fill="none" xmlns="http://www.w3.org/2000/svg">
<path d="M12.2349 4.03024H3.88553C3.25285 4.03024 2.64608 4.28157 2.19871 4.72894C1.75133 5.17631 1.5 5.78308 1.5 6.41576V23.1145C1.5 23.7472 1.75133 24.3539 2.19871 24.8013C2.64608 25.2487 3.25285 25.5 3.88553 25.5H20.5842C21.2169 25.5 21.8237 25.2487 22.2711 24.8013C22.7184 24.3539 22.9698 23.7472 22.9698 23.1145V14.7651M21.1806 2.24109C21.6551 1.76658 22.2987 1.5 22.9698 1.5C23.6408 1.5 24.2844 1.76658 24.7589 2.24109C25.2334 2.7156 25.5 3.35918 25.5 4.03024C25.5 4.7013 25.2334 5.34487 24.7589 5.81938L13.4276 17.1506L8.65659 18.3434L9.84935 13.5724L21.1806 2.24109Z" stroke="#1E1E1E" stroke-width="3" stroke-linecap="round" stroke-linejoin="round"/>
</svg>
