<svg width="29" height="28" viewBox="0 0 29 28" fill="none" xmlns="http://www.w3.org/2000/svg">
<path d="M14.2501 1.5C14.8209 1.5 15.342 1.82412 15.5948 2.33594L18.7217 8.67188L25.7169 9.69434C26.2816 9.77688 26.7507 10.173 26.9268 10.7158C27.1028 11.2587 26.9556 11.8546 26.5469 12.2529L21.4864 17.1816L22.6807 24.1436C22.7772 24.7063 22.546 25.2757 22.084 25.6113C21.6221 25.9468 21.0093 25.9913 20.504 25.7256L14.2501 22.4365L7.99615 25.7256C7.49085 25.9913 6.87802 25.9468 6.41608 25.6113C5.95411 25.2757 5.72287 24.7063 5.8194 24.1436L7.01276 17.1816L1.95319 12.2529C1.5445 11.8546 1.39728 11.2587 1.5733 10.7158C1.74944 10.173 2.21852 9.77688 2.78326 9.69434L9.7774 8.67188L12.9053 2.33594L13.0118 2.15332C13.2887 1.7482 13.7504 1.5 14.2501 1.5Z" fill="#ECC30B" stroke="#1E1E1E" stroke-width="3" stroke-linecap="round" stroke-linejoin="round"/>
</svg>
