<?xml version="1.0" encoding="UTF-8"?>
<svg version="1.1" xmlns="http://www.w3.org/2000/svg" width="512" height="512">
<path d="M0 0 C1.25090675 -0.00935994 1.25090675 -0.00935994 2.52708435 -0.01890898 C5.31391906 -0.03482936 8.09987796 -0.0222386 10.88671875 -0.00964355 C12.88770049 -0.0150651 14.88867824 -0.02218794 16.88964844 -0.03088379 C22.3193745 -0.04911614 27.74879647 -0.04204986 33.17852783 -0.02936745 C38.86121438 -0.0192394 44.54387493 -0.02863259 50.2265625 -0.03491211 C59.76957879 -0.04218906 69.31247126 -0.03259948 78.85546875 -0.0135498 C89.88799463 0.00821896 100.92022482 0.00116763 111.95274353 -0.02085543 C121.42551708 -0.03900799 130.89820162 -0.04156843 140.37098694 -0.03110075 C146.02846117 -0.02486506 151.68579642 -0.02403236 157.34326172 -0.0372467 C162.66212809 -0.0488024 167.98061328 -0.04078433 173.29943848 -0.01766968 C175.25133633 -0.01238113 177.20326628 -0.01389885 179.15515137 -0.02272034 C181.82001297 -0.0336536 184.48365366 -0.01993932 187.1484375 0 C187.92062119 -0.00892289 188.69280487 -0.01784577 189.48838806 -0.02703905 C194.68395126 0.04835109 197.64204357 1.12461816 201.57421875 4.50793457 C205.55572452 9.13534043 206.1505 13.01901662 206.08215332 18.93371582 C206.08839328 19.76765366 206.09463325 20.60159149 206.1010623 21.46080017 C206.11698268 24.24763488 206.10439192 27.03359379 206.09179688 29.82043457 C206.09721842 31.82141631 206.10434126 33.82239406 206.11303711 35.82336426 C206.13126947 41.25309032 206.12420318 46.68251229 206.11152077 52.11224365 C206.10139272 57.7949302 206.11078591 63.47759075 206.11706543 69.16027832 C206.12434238 78.70329461 206.1147528 88.24618708 206.09570312 97.78918457 C206.07393436 108.82171045 206.08098569 119.85394064 206.10300875 130.88645935 C206.12116131 140.3592329 206.12372175 149.83191744 206.11325407 159.30470276 C206.10701838 164.96217699 206.10618568 170.61951224 206.11940002 176.27697754 C206.13095572 181.59584391 206.12293765 186.9143291 206.099823 192.2331543 C206.09453445 194.18505216 206.09605217 196.1369821 206.10487366 198.08886719 C206.11580692 200.75372879 206.10209264 203.41736948 206.08215332 206.08215332 C206.09107621 206.85433701 206.09999909 207.62652069 206.10919237 208.42210388 C206.03406235 213.599741 204.82684747 216.51177503 201.57421875 220.50793457 C196.48201599 225.05075533 192.07447967 225.09685373 185.57421875 225.03918457 C184.14335938 225.04492493 184.14335938 225.04492493 182.68359375 225.05078125 C180.6731663 225.05349493 178.66270322 225.04617194 176.65234375 225.02941895 C173.58383088 225.00800166 170.51765923 225.02923923 167.44921875 225.05480957 C165.49088027 225.0521662 163.53254325 225.04704102 161.57421875 225.03918457 C160.20523438 225.05132996 160.20523438 225.05132996 158.80859375 225.0637207 C153.25342003 224.98237857 149.88084171 224.34992931 145.57421875 220.50793457 C125.58362267 190.52204045 140.92752098 148.54476233 140.57421875 112.50793457 C30.02421875 223.05793457 -80.52578125 333.60793457 -194.42578125 447.50793457 C-160.76578125 447.83793457 -127.10578125 448.16793457 -92.42578125 448.50793457 C-84.86123736 453.55096383 -84.86123736 453.55096383 -82.42578125 458.50793457 C-81.8733853 461.84991143 -81.86452978 465.12627671 -81.89453125 468.50793457 C-81.89070435 469.46184082 -81.88687744 470.41574707 -81.88293457 471.39855957 C-81.88022089 473.40898702 -81.88754388 475.4194501 -81.90429688 477.42980957 C-81.92571416 480.49832244 -81.90447659 483.56449409 -81.87890625 486.63293457 C-81.88154962 488.59127305 -81.8866748 490.54961007 -81.89453125 492.50793457 C-81.88643433 493.42059082 -81.8783374 494.33324707 -81.86999512 495.27355957 C-81.95133725 500.8287333 -82.58378651 504.20131161 -86.42578125 508.50793457 C-91.15886324 512.36037297 -94.91602003 513.08445667 -100.8515625 513.01586914 C-101.68550034 513.0221091 -102.51943817 513.02834907 -103.37864685 513.03477812 C-106.16548156 513.0506985 -108.95144046 513.03810774 -111.73828125 513.0255127 C-113.73926299 513.03093424 -115.74024074 513.03805708 -117.74121094 513.04675293 C-123.170937 513.06498529 -128.60035897 513.057919 -134.03009033 513.04523659 C-139.71277688 513.03510854 -145.39543743 513.04450173 -151.078125 513.05078125 C-160.62114129 513.0580582 -170.16403376 513.04846862 -179.70703125 513.02941895 C-190.73955713 513.00765018 -201.77178732 513.01470151 -212.80430603 513.03672457 C-222.27707958 513.05487713 -231.74976412 513.05743757 -241.22254944 513.04696989 C-246.88002367 513.0407342 -252.53735892 513.0399015 -258.19482422 513.05311584 C-263.51369059 513.06467154 -268.83217578 513.05665347 -274.15100098 513.03353882 C-276.10289883 513.02825027 -278.05482878 513.02976799 -280.00671387 513.03858948 C-282.67157547 513.04952274 -285.33521616 513.03580846 -288 513.01586914 C-288.77218369 513.02479203 -289.54436737 513.03371491 -290.33995056 513.04290819 C-295.53551376 512.96751805 -298.49360607 511.89125098 -302.42578125 508.50793457 C-306.40728702 503.88052871 -307.0020625 499.99685252 -306.93371582 494.08215332 C-306.93995578 493.24821548 -306.94619575 492.41427765 -306.9526248 491.55506897 C-306.96854518 488.76823426 -306.95595442 485.98227536 -306.94335938 483.19543457 C-306.94878092 481.19445283 -306.95590376 479.19347508 -306.96459961 477.19250488 C-306.98283197 471.76277883 -306.97576568 466.33335685 -306.96308327 460.90362549 C-306.95295522 455.22093894 -306.96234841 449.5382784 -306.96862793 443.85559082 C-306.97590488 434.31257453 -306.9663153 424.76968206 -306.94726562 415.22668457 C-306.92549686 404.19415869 -306.93254819 393.1619285 -306.95457125 382.12940979 C-306.97272381 372.65663624 -306.97528425 363.1839517 -306.96481657 353.71116638 C-306.95858088 348.05369215 -306.95774818 342.3963569 -306.97096252 336.7388916 C-306.98251822 331.42002523 -306.97450015 326.10154004 -306.9513855 320.78271484 C-306.94609695 318.83081699 -306.94761467 316.87888704 -306.95643616 314.92700195 C-306.96736942 312.26214035 -306.95365514 309.59849966 -306.93371582 306.93371582 C-306.94263871 306.16153214 -306.95156159 305.38934845 -306.96075487 304.59376526 C-306.88562485 299.41612814 -305.67840997 296.50409411 -302.42578125 292.50793457 C-297.33357849 287.96511381 -292.92604217 287.91901541 -286.42578125 287.97668457 C-285.471875 287.97285767 -284.51796875 287.96903076 -283.53515625 287.96508789 C-281.5247288 287.96237421 -279.51426572 287.9696972 -277.50390625 287.9864502 C-274.43539338 288.00786748 -271.36922173 287.98662991 -268.30078125 287.96105957 C-266.34244277 287.96370294 -264.38410575 287.96882812 -262.42578125 287.97668457 C-261.513125 287.96858765 -260.60046875 287.96049072 -259.66015625 287.95214844 C-254.10498253 288.03349057 -250.73240421 288.66593983 -246.42578125 292.50793457 C-226.43518517 322.49382869 -241.77908348 364.47110681 -241.42578125 400.50793457 C-130.87578125 289.95793457 -20.32578125 179.40793457 93.57421875 65.50793457 C59.91421875 65.17793457 26.25421875 64.84793457 -8.42578125 64.50793457 C-15.99032514 59.46490531 -15.99032514 59.46490531 -18.42578125 54.50793457 C-18.9781772 51.16595771 -18.98703272 47.88959243 -18.95703125 44.50793457 C-18.96085815 43.55402832 -18.96468506 42.60012207 -18.96862793 41.61730957 C-18.97134161 39.60688212 -18.96401862 37.59641904 -18.94726562 35.58605957 C-18.92584834 32.5175467 -18.94708591 29.45137505 -18.97265625 26.38293457 C-18.97001288 24.4245961 -18.9648877 22.46625907 -18.95703125 20.50793457 C-18.96512817 19.59527832 -18.9732251 18.68262207 -18.98156738 17.74230957 C-18.90022525 12.18713585 -18.26777599 8.81455753 -14.42578125 4.50793457 C-9.69269926 0.65549617 -5.93554247 -0.06858753 0 0 Z " fill="#000000" transform="translate(306.42578125,-0.5079345703125)"/>
</svg>
