<svg width="24" height="24" viewBox="0 0 24 24" fill="none" xmlns="http://www.w3.org/2000/svg">
<path d="M23.2007 12.6454C22.9975 14.8441 22.1723 16.9394 20.8217 18.6863C19.4712 20.4331 17.651 21.7592 15.5743 22.5093C13.4976 23.2594 11.2502 23.4026 9.09503 22.922C6.93991 22.4415 4.96621 21.3571 3.40489 19.7958C1.84356 18.2345 0.759184 16.2608 0.278642 14.1056C-0.201899 11.9505 -0.0587302 9.70311 0.691397 7.62638C1.44152 5.54966 2.76758 3.72951 4.51441 2.37893C6.26124 1.02835 8.35658 0.203186 10.5553 0C9.268 1.74151 8.64857 3.88721 8.80962 6.04683C8.97066 8.20645 9.9015 10.2365 11.4328 11.7679C12.9641 13.2992 14.9942 14.23 17.1539 14.3911C19.3135 14.5521 21.4592 13.9327 23.2007 12.6454Z" fill="white"/>
</svg>
